<svg width="40" height="40" viewBox="0 0 40 40" fill="none" xmlns="http://www.w3.org/2000/svg">
<path d="M26.9002 3.5606C26.8202 4.0606 26.7802 4.5606 26.7802 5.0606C26.7802 9.5606 30.4202 13.1986 34.9002 13.1986C35.4002 13.1986 35.8802 13.1406 36.3802 13.0606V29.1986C36.3802 35.9806 32.3802 40.0006 25.5802 40.0006H10.8022C4.00024 40.0006 0.000244141 35.9806 0.000244141 29.1986V14.4006C0.000244141 7.6006 4.00024 3.5606 10.8022 3.5606H26.9002ZM27.3022 15.7206C26.7602 15.6606 26.2222 15.9006 25.9002 16.3406L21.0622 22.6006L15.5202 18.2406C15.1802 17.9806 14.7802 17.8786 14.3802 17.9206C13.9822 17.9806 13.6222 18.1986 13.3802 18.5186L7.46224 26.2206L7.34024 26.4006C7.00024 27.0386 7.16024 27.8586 7.76024 28.3006C8.04024 28.4806 8.34024 28.6006 8.68024 28.6006C9.14224 28.6206 9.58024 28.3786 9.86024 28.0006L14.8802 21.5386L20.5802 25.8206L20.7602 25.9386C21.4002 26.2786 22.2002 26.1206 22.6602 25.5186L28.4402 18.0606L28.3602 18.1006C28.6802 17.6606 28.7402 17.1006 28.5202 16.6006C28.3022 16.1006 27.8202 15.7606 27.3022 15.7206ZM35.1804 0C37.8404 0 40.0004 2.16 40.0004 4.82C40.0004 7.48 37.8404 9.64 35.1804 9.64C32.5204 9.64 30.3604 7.48 30.3604 4.82C30.3604 2.16 32.5204 0 35.1804 0Z" fill="#162A31"/>
</svg>
