<svg width="50" height="48" viewBox="0 0 50 48" fill="none" xmlns="http://www.w3.org/2000/svg">
<path d="M49.8112 16.3004C49.8112 16.7807 49.6203 17.2414 49.2807 17.5811C48.941 17.9207 48.4804 18.1115 48 18.1115H44.3777V21.7339C44.3777 22.2142 44.1869 22.6749 43.8472 23.0145C43.5076 23.3542 43.0469 23.545 42.5665 23.545C42.0862 23.545 41.6255 23.3542 41.2859 23.0145C40.9462 22.6749 40.7554 22.2142 40.7554 21.7339V18.1115H37.1331C36.6527 18.1115 36.1921 17.9207 35.8524 17.5811C35.5127 17.2414 35.3219 16.7807 35.3219 16.3004C35.3219 15.82 35.5127 15.3594 35.8524 15.0197C36.1921 14.6801 36.6527 14.4892 37.1331 14.4892H40.7554V10.8669C40.7554 10.3866 40.9462 9.92591 41.2859 9.58625C41.6255 9.24659 42.0862 9.05577 42.5665 9.05577C43.0469 9.05577 43.5076 9.24659 43.8472 9.58625C44.1869 9.92591 44.3777 10.3866 44.3777 10.8669V14.4892H48C48.4804 14.4892 48.941 14.6801 49.2807 15.0197C49.6203 15.3594 49.8112 15.82 49.8112 16.3004ZM28.0773 7.24462H29.8885V9.05577C29.8885 9.53612 30.0793 9.9968 30.4189 10.3365C30.7586 10.6761 31.2193 10.8669 31.6996 10.8669C32.18 10.8669 32.6406 10.6761 32.9803 10.3365C33.32 9.9968 33.5108 9.53612 33.5108 9.05577V7.24462H35.3219C35.8023 7.24462 36.2629 7.0538 36.6026 6.71414C36.9423 6.37449 37.1331 5.91381 37.1331 5.43346C37.1331 4.95312 36.9423 4.49244 36.6026 4.15278C36.2629 3.81313 35.8023 3.62231 35.3219 3.62231H33.5108V1.81115C33.5108 1.33081 33.32 0.870132 32.9803 0.530475C32.6406 0.190817 32.18 0 31.6996 0C31.2193 0 30.7586 0.190817 30.4189 0.530475C30.0793 0.870132 29.8885 1.33081 29.8885 1.81115V3.62231H28.0773C27.597 3.62231 27.1363 3.81313 26.7966 4.15278C26.457 4.49244 26.2661 4.95312 26.2661 5.43346C26.2661 5.91381 26.457 6.37449 26.7966 6.71414C27.1363 7.0538 27.597 7.24462 28.0773 7.24462ZM42.6797 29.1143L42.1817 29.2049C38.9389 30.0999 35.5168 30.1188 32.2644 29.2595C29.0121 28.4003 26.0458 26.6937 23.6682 24.3138C21.2907 21.934 19.587 18.9661 18.7309 15.7129C17.8748 12.4596 17.897 9.03755 18.7951 5.79569C18.8395 5.66439 18.8624 5.52679 18.8631 5.38819C18.8857 5.00902 18.7887 4.63232 18.5855 4.31136C18.3824 3.9904 18.0835 3.74143 17.7311 3.59967C17.3554 3.45026 16.9399 3.43428 16.5538 3.55439C12.7452 4.6173 9.28135 6.6592 6.50711 9.47686C3.73288 12.2945 1.74501 15.7896 0.741381 19.6143C-0.262251 23.439 -0.24664 27.4599 0.78666 31.2767C1.81996 35.0935 3.83491 38.573 6.63094 41.3691C9.42696 44.1651 12.9066 46.18 16.7233 47.2133C20.5401 48.2466 24.561 48.2623 28.3857 47.2586C32.2104 46.255 35.7055 44.2671 38.5231 41.4929C41.3408 38.7187 43.3827 35.2548 44.4456 31.4462C44.5583 31.0927 44.5583 30.7129 44.4456 30.3595C44.318 29.9936 44.0792 29.6768 43.7625 29.4535C43.4458 29.2302 43.0672 29.1116 42.6797 29.1143Z" fill="#E9C46A"/>
</svg>
