<svg width="36" height="40" viewBox="0 0 36 40" fill="none" xmlns="http://www.w3.org/2000/svg">
<path d="M26.3822 0C32.5602 0 36.0002 3.56 36.0002 9.66V30.32C36.0002 36.52 32.5602 40 26.3822 40H9.62024C3.54024 40 0.000244141 36.52 0.000244141 30.32V9.66C0.000244141 3.56 3.54024 0 9.62024 0H26.3822ZM10.1602 27.48C9.56024 27.42 8.98024 27.7 8.66024 28.22C8.34024 28.72 8.34024 29.38 8.66024 29.9C8.98024 30.4 9.56024 30.7 10.1602 30.62H25.8402C26.6382 30.54 27.2402 29.858 27.2402 29.06C27.2402 28.24 26.6382 27.56 25.8402 27.48H10.1602ZM25.8402 18.358H10.1602C9.29824 18.358 8.60024 19.06 8.60024 19.92C8.60024 20.78 9.29824 21.48 10.1602 21.48H25.8402C26.7002 21.48 27.4002 20.78 27.4002 19.92C27.4002 19.06 26.7002 18.358 25.8402 18.358ZM16.1382 9.3H10.1602V9.32C9.29824 9.32 8.60024 10.02 8.60024 10.88C8.60024 11.74 9.29824 12.44 10.1602 12.44H16.1382C17.0002 12.44 17.7002 11.74 17.7002 10.858C17.7002 10 17.0002 9.3 16.1382 9.3Z" fill="black"/>
</svg>
