<svg width="40" height="40" viewBox="0 0 40 40" fill="none" xmlns="http://www.w3.org/2000/svg">
<path d="M29.3308 0.0206705C32.2079 -0.159143 35.045 0.839823 37.1828 2.7978C39.1408 4.93559 40.1397 7.77265 39.9799 10.6697V29.3303C40.1597 32.2273 39.1408 35.0644 37.2027 37.2022C35.0649 39.1602 32.2079 40.1591 29.3308 39.9793H10.67C7.77296 40.1591 4.93587 39.1602 2.79806 37.2022C0.840074 35.0644 -0.158901 32.2273 0.0209148 29.3303V10.6697C-0.158901 7.77265 0.840074 4.93559 2.79806 2.7978C4.93587 0.839823 7.77296 -0.159143 10.67 0.0206705H29.3308ZM28.8114 9.15122C27.5726 7.91251 25.5747 7.91251 24.336 9.15122L22.9973 10.5098C22.7975 10.7096 22.7975 11.0493 22.9973 11.2491C22.9973 11.2491 23.0365 11.288 23.1064 11.3574L23.5978 11.8462C23.8821 12.129 24.2369 12.4822 24.5932 12.8374L25.8014 14.045C26.0534 14.2982 26.2207 14.4679 26.234 14.4857C26.4538 14.7255 26.5936 15.0451 26.5936 15.4048C26.5936 16.124 26.0142 16.7234 25.275 16.7234C24.9353 16.7234 24.6157 16.5835 24.3959 16.3638L21.0593 13.0472C20.8995 12.8874 20.6198 12.8874 20.4599 13.0472L10.9297 22.5773C10.2704 23.2367 9.89078 24.1157 9.8708 25.0548L9.75093 29.7899C9.75093 30.0496 9.83084 30.2894 10.0107 30.4692C10.1905 30.649 10.4302 30.7489 10.69 30.7489H15.3851C16.3442 30.7489 17.2632 30.3693 17.9625 29.69L31.4087 16.2039C32.6274 14.9652 32.6274 12.9673 31.4087 11.7485L28.8114 9.15122Z" fill="#162A31"/>
</svg>
