<svg width="48" height="48" viewBox="0 0 48 48" fill="none" xmlns="http://www.w3.org/2000/svg">
<path d="M23.9999 13.0909C21.1066 13.0909 18.3319 14.2403 16.286 16.2861C14.2402 18.332 13.0908 21.1067 13.0908 24C13.0908 26.8933 14.2402 29.668 16.286 31.7139C18.3319 33.7597 21.1066 34.9091 23.9999 34.9091C26.8932 34.9091 29.668 33.7597 31.7138 31.7139C33.7597 29.668 34.909 26.8933 34.909 24C34.909 21.1067 33.7597 18.332 31.7138 16.2861C29.668 14.2403 26.8932 13.0909 23.9999 13.0909Z" fill="#E9C46A"/>
<path fill-rule="evenodd" clip-rule="evenodd" d="M24 0C24.5787 0 25.1336 0.229869 25.5428 0.63904C25.9519 1.04821 26.1818 1.60316 26.1818 2.18182V4.36364C26.1818 4.94229 25.9519 5.49724 25.5428 5.90641C25.1336 6.31559 24.5787 6.54545 24 6.54545C23.4213 6.54545 22.8664 6.31559 22.4572 5.90641C22.0481 5.49724 21.8182 4.94229 21.8182 4.36364V2.18182C21.8182 1.60316 22.0481 1.04821 22.4572 0.63904C22.8664 0.229869 23.4213 0 24 0ZM5.00291 5.00291C5.41206 4.59388 5.96691 4.3641 6.54545 4.3641C7.12399 4.3641 7.67885 4.59388 8.088 5.00291L11.3607 8.27564C11.7582 8.68713 11.9781 9.23827 11.9731 9.81033C11.9681 10.3824 11.7387 10.9296 11.3341 11.3341C10.9296 11.7387 10.3824 11.9681 9.81033 11.9731C9.23827 11.9781 8.68713 11.7582 8.27564 11.3607L5.00291 8.088C4.59388 7.67885 4.3641 7.12399 4.3641 6.54545C4.3641 5.96691 4.59388 5.41206 5.00291 5.00291ZM42.9971 5.00291C43.4061 5.41206 43.6359 5.96691 43.6359 6.54545C43.6359 7.12399 43.4061 7.67885 42.9971 8.088L39.7244 11.3607C39.5231 11.5691 39.2823 11.7353 39.0162 11.8497C38.75 11.964 38.4637 12.0242 38.174 12.0267C37.8843 12.0292 37.597 11.974 37.3288 11.8643C37.0607 11.7546 36.8171 11.5926 36.6122 11.3878C36.4074 11.1829 36.2454 10.9393 36.1357 10.6712C36.026 10.403 35.9708 10.1157 35.9733 9.82603C35.9758 9.53633 36.036 9.25004 36.1503 8.98385C36.2647 8.71766 36.4309 8.4769 36.6393 8.27564L39.912 5.00291C40.3212 4.59388 40.876 4.3641 41.4545 4.3641C42.0331 4.3641 42.5879 4.59388 42.9971 5.00291ZM0 24C0 23.4213 0.229869 22.8664 0.63904 22.4572C1.04821 22.0481 1.60316 21.8182 2.18182 21.8182H4.36364C4.94229 21.8182 5.49724 22.0481 5.90641 22.4572C6.31559 22.8664 6.54545 23.4213 6.54545 24C6.54545 24.5787 6.31559 25.1336 5.90641 25.5428C5.49724 25.9519 4.94229 26.1818 4.36364 26.1818H2.18182C1.60316 26.1818 1.04821 25.9519 0.63904 25.5428C0.229869 25.1336 0 24.5787 0 24ZM41.4545 24C41.4545 23.4213 41.6844 22.8664 42.0936 22.4572C42.5028 22.0481 43.0577 21.8182 43.6364 21.8182H45.8182C46.3968 21.8182 46.9518 22.0481 47.361 22.4572C47.7701 22.8664 48 23.4213 48 24C48 24.5787 47.7701 25.1336 47.361 25.5428C46.9518 25.9519 46.3968 26.1818 45.8182 26.1818H43.6364C43.0577 26.1818 42.5028 25.9519 42.0936 25.5428C41.6844 25.1336 41.4545 24.5787 41.4545 24ZM11.3607 36.6393C11.7698 37.0484 11.9995 37.6033 11.9995 38.1818C11.9995 38.7604 11.7698 39.3152 11.3607 39.7244L8.088 42.9971C7.6765 43.3945 7.12537 43.6144 6.55331 43.6095C5.98124 43.6045 5.43401 43.375 5.02949 42.9705C4.62496 42.566 4.3955 42.0188 4.39053 41.4467C4.38556 40.8746 4.60547 40.3235 5.00291 39.912L8.27564 36.6393C8.68479 36.2302 9.23964 36.0005 9.81818 36.0005C10.3967 36.0005 10.9516 36.2302 11.3607 36.6393ZM36.6393 36.6393C37.0484 36.2302 37.6033 36.0005 38.1818 36.0005C38.7604 36.0005 39.3152 36.2302 39.7244 36.6393L42.9971 39.912C43.3945 40.3235 43.6144 40.8746 43.6095 41.4467C43.6045 42.0188 43.375 42.566 42.9705 42.9705C42.566 43.375 42.0188 43.6045 41.4467 43.6095C40.8746 43.6144 40.3235 43.3945 39.912 42.9971L36.6393 39.7244C36.2302 39.3152 36.0005 38.7604 36.0005 38.1818C36.0005 37.6033 36.2302 37.0484 36.6393 36.6393ZM24 41.4545C24.5787 41.4545 25.1336 41.6844 25.5428 42.0936C25.9519 42.5028 26.1818 43.0577 26.1818 43.6364V45.8182C26.1818 46.3968 25.9519 46.9518 25.5428 47.361C25.1336 47.7701 24.5787 48 24 48C23.4213 48 22.8664 47.7701 22.4572 47.361C22.0481 46.9518 21.8182 46.3968 21.8182 45.8182V43.6364C21.8182 43.0577 22.0481 42.5028 22.4572 42.0936C22.8664 41.6844 23.4213 41.4545 24 41.4545Z" fill="#E9C46A"/>
</svg>
