<svg width="41" height="39" viewBox="0 0 41 39" fill="none" xmlns="http://www.w3.org/2000/svg">
<path d="M31.838 23.64C31.32 24.142 31.082 24.868 31.2 25.58L32.978 35.42C33.128 36.254 32.776 37.098 32.078 37.58C31.394 38.08 30.484 38.14 29.738 37.74L20.88 33.12C20.572 32.956 20.23 32.868 19.88 32.858H19.338C19.15 32.886 18.966 32.946 18.798 33.038L9.938 37.68C9.5 37.9 9.004 37.978 8.518 37.9C7.334 37.676 6.544 36.548 6.738 35.358L8.518 25.518C8.636 24.8 8.398 24.07 7.88 23.56L0.657996 16.56C0.0539958 15.974 -0.156004 15.094 0.119996 14.3C0.387996 13.508 1.072 12.93 1.898 12.8L11.838 11.358C12.594 11.28 13.258 10.82 13.598 10.14L17.978 1.16C18.082 0.96 18.216 0.776 18.378 0.62L18.558 0.48C18.652 0.376 18.76 0.29 18.88 0.22L19.098 0.14L19.438 0H20.28C21.032 0.078 21.694 0.528 22.04 1.2L26.478 10.14C26.798 10.794 27.42 11.248 28.138 11.358L38.078 12.8C38.918 12.92 39.62 13.5 39.898 14.3C40.16 15.102 39.934 15.982 39.318 16.56L31.838 23.64Z" fill="black"/>
</svg>
